<svg id="Слой_1" data-name="Слой 1" xmlns="http://www.w3.org/2000/svg" viewBox="0 0 938 444.37"><defs><style>.cls-1,.cls-2,.cls-3,.cls-4{fill:#fff;}.cls-2,.cls-3,.cls-4{stroke:#000;stroke-miterlimit:10;}.cls-2,.cls-3{stroke-width:32px;}.cls-3{stroke-linecap:round;}.cls-4{stroke-width:15px;}</style></defs><rect width="938" height="228" rx="55.23"/><rect class="cls-1" x="85.33" y="42.77" width="156.65" height="104.77"/><rect class="cls-1" x="112.21" y="102.03" width="99.47" height="64.53"/><rect class="cls-1" x="132.07" y="115.47" width="60.09" height="64.53"/><rect x="103.31" y="56.64" width="7.19" height="30.3"/><rect x="116.15" y="56.64" width="7.19" height="30.3"/><rect x="128.47" y="56.64" width="7.19" height="30.3"/><rect x="140.8" y="56.64" width="7.19" height="30.3"/><rect x="153.13" y="56.64" width="7.19" height="30.3"/><rect x="165.97" y="56.64" width="7.19" height="30.3"/><rect x="178.29" y="56.64" width="7.19" height="30.3"/><rect x="191.13" y="56.64" width="7.19" height="30.3"/><rect x="204.49" y="56.64" width="7.19" height="30.3"/><rect x="217.33" y="56.64" width="7.19" height="30.3"/><rect class="cls-1" x="290.51" y="41.75" width="156.65" height="104.77"/><rect class="cls-1" x="317.38" y="101.01" width="99.47" height="64.53"/><rect class="cls-1" x="337.24" y="114.45" width="60.09" height="64.53"/><rect x="308.48" y="55.62" width="7.19" height="30.3"/><rect x="321.32" y="55.62" width="7.19" height="30.3"/><rect x="333.65" y="55.62" width="7.19" height="30.3"/><rect x="345.98" y="55.62" width="7.19" height="30.3"/><rect x="358.3" y="55.62" width="7.19" height="30.3"/><rect x="371.14" y="55.62" width="7.19" height="30.3"/><rect x="383.47" y="55.62" width="7.19" height="30.3"/><rect x="396.31" y="55.62" width="7.19" height="30.3"/><rect x="409.66" y="55.62" width="7.19" height="30.3"/><rect x="422.5" y="55.62" width="7.19" height="30.3"/><rect class="cls-1" x="497.51" y="41.75" width="156.65" height="104.77"/><rect class="cls-1" x="524.38" y="101.01" width="99.47" height="64.53"/><rect class="cls-1" x="544.24" y="114.45" width="60.09" height="64.53"/><rect x="515.48" y="55.62" width="7.19" height="30.3"/><rect x="528.32" y="55.62" width="7.19" height="30.3"/><rect x="540.65" y="55.62" width="7.19" height="30.3"/><rect x="552.98" y="55.62" width="7.19" height="30.3"/><rect x="565.3" y="55.62" width="7.19" height="30.3"/><rect x="578.14" y="55.62" width="7.19" height="30.3"/><rect x="590.47" y="55.62" width="7.19" height="30.3"/><rect x="603.31" y="55.62" width="7.19" height="30.3"/><rect x="616.66" y="55.62" width="7.19" height="30.3"/><rect x="629.5" y="55.62" width="7.19" height="30.3"/><rect class="cls-1" x="711.51" y="41.75" width="156.65" height="104.77"/><rect class="cls-1" x="738.38" y="101.01" width="99.47" height="64.53"/><rect class="cls-1" x="758.24" y="114.45" width="60.09" height="64.53"/><rect x="729.48" y="55.62" width="7.19" height="30.3"/><rect x="742.32" y="55.62" width="7.19" height="30.3"/><rect x="754.65" y="55.62" width="7.19" height="30.3"/><rect x="766.98" y="55.62" width="7.19" height="30.3"/><rect x="779.3" y="55.62" width="7.19" height="30.3"/><rect x="792.14" y="55.62" width="7.19" height="30.3"/><rect x="804.47" y="55.62" width="7.19" height="30.3"/><rect x="817.31" y="55.62" width="7.19" height="30.3"/><rect x="830.66" y="55.62" width="7.19" height="30.3"/><rect x="843.5" y="55.62" width="7.19" height="30.3"/><line class="cls-2" x1="458.83" y1="208" x2="458.83" y2="366.87"/><line class="cls-3" x1="156.83" y1="390.87" x2="754.83" y2="390.87"/><rect class="cls-4" x="413.83" y="345.87" width="91" height="91" rx="45.5"/></svg>