<?xml version="1.0" encoding="UTF-8"?>
<svg version="1.1" xmlns="http://www.w3.org/2000/svg" width="661" height="574">
<path d="M0 0 C218.13 0 436.26 0 661 0 C661 189.42 661 378.84 661 574 C442.87 574 224.74 574 0 574 C0 384.58 0 195.16 0 0 Z " fill="#2ECD89" transform="translate(0,0)"/>
<path d="M0 0 C218.13 0 436.26 0 661 0 C661 189.42 661 378.84 661 574 C442.87 574 224.74 574 0 574 C0 384.58 0 195.16 0 0 Z M19 25 C7.04880512 40.704653 5.69650781 56.77040897 5.73930359 75.77462769 C5.73628001 77.68051558 5.73238949 79.58640225 5.72771102 81.4922868 C5.71744905 86.70988411 5.71960826 91.92741257 5.72389162 97.14501548 C5.72636209 102.77975943 5.7173407 108.41448695 5.70985413 114.04922485 C5.69711426 125.08050664 5.69531253 136.11176407 5.69765439 147.14305197 C5.69943843 156.11054941 5.69768606 165.07803948 5.69342995 174.04553604 C5.69283476 175.32250915 5.69223957 176.59948225 5.69162634 177.91515151 C5.69041458 180.50943413 5.68920044 183.10371675 5.68798397 185.69799937 C5.68019877 203.11261648 5.67627621 220.5272287 5.68030071 237.94184685 C5.68045709 238.62237427 5.68061346 239.3029017 5.68077458 240.00405116 C5.68158032 243.45297433 5.68242609 246.90189749 5.68328788 250.35082065 C5.68345897 251.03574747 5.68363006 251.72067429 5.68380633 252.42635647 C5.68415299 253.81144334 5.68450152 255.19653021 5.68485192 256.58161708 C5.69020898 278.13304085 5.68227742 299.6844237 5.66381836 321.23583984 C5.64308772 345.46756652 5.63240872 369.69926031 5.63639385 393.93099797 C5.63830573 406.7544169 5.63581944 419.57779856 5.62167931 432.40121078 C5.6097639 443.31735059 5.6083625 454.23343017 5.62046947 465.14957081 C5.62635685 470.71672946 5.62746135 476.28377795 5.61546707 481.85092926 C5.60460432 486.95224029 5.60771644 492.05334923 5.62172876 497.15465082 C5.62437457 498.99505249 5.62201282 500.83547001 5.61399289 502.6758561 C5.53502908 522.15614809 8.64536786 538.21516803 22.625 552.78515625 C39.43275859 568.45949691 58.34477449 569.30271296 80.08903503 569.24050903 C82.35479493 569.24138174 84.62055463 569.24313391 86.88631326 569.24568737 C93.09814724 569.25015214 99.30991205 569.24216911 105.52173722 569.23213124 C111.5368369 569.2243749 117.55192925 569.22605318 123.56703193 569.22749493 C135.8664307 569.2301185 148.16580792 569.22345601 160.46520042 569.21146011 C172.63920384 569.19961701 184.81319828 569.19192639 196.98720741 569.18975449 C198.12357074 569.18954827 198.12357074 569.18954827 199.28289091 569.18933788 C203.13039692 569.18866119 206.97790294 569.18805844 210.82540897 569.18748413 C238.06142784 569.18328581 265.29743499 569.16981807 292.53344727 569.15087891 C318.9891758 569.13250359 345.44490113 569.11833952 371.90063477 569.10986328 C372.71643656 569.10960023 373.53223836 569.10933718 374.37276142 569.10906615 C382.56554534 569.10642906 390.75832928 569.10387744 398.95111324 569.10138843 C415.64004185 569.09631631 432.32897025 569.09067381 449.01789856 569.08468628 C449.78519081 569.0844117 450.55248306 569.08413712 451.34302659 569.08385422 C502.56202269 569.06545984 553.78101197 569.03372859 605 569 C605 568.67 605 568.34 605 568 C520.85 568 436.7 568 350 568 C350 382.54 350 197.08 350 6 C433.16 6 516.32 6 602 6 C602 5.67 602 5.34 602 5 C550.12953864 4.94863554 498.25907538 4.9008749 446.38859558 4.87297058 C445.23671265 4.87234932 445.23671265 4.87234932 444.06155935 4.87171552 C427.37181645 4.86273641 410.68207328 4.85442592 393.99232971 4.84680401 C385.80746779 4.84306206 377.62260595 4.83917239 369.43774414 4.83520508 C368.6232599 4.8348128 367.80877566 4.83442052 366.96961007 4.83401636 C340.57847894 4.82123647 314.18736709 4.79870564 287.79624764 4.77110834 C260.67182773 4.74279579 233.54741849 4.72434024 206.42298406 4.71825503 C202.59024931 4.71739059 198.7575146 4.71641368 194.92477989 4.71536827 C194.17045623 4.715166 193.41613257 4.71496373 192.63895061 4.71475533 C180.5053205 4.71121269 168.37172343 4.69730529 156.23810678 4.6795039 C144.03433504 4.66182143 131.830596 4.65510126 119.6268119 4.65949587 C113.01672721 4.66157417 106.40671916 4.65846133 99.79664612 4.64238358 C93.74194747 4.62776429 87.68741062 4.62706099 81.63270446 4.63730332 C79.44540497 4.63856886 77.25809531 4.63478069 75.07081578 4.62535045 C52.91967911 4.53542189 34.64013824 7.70911371 19 25 Z " fill="#F4365B" transform="translate(0,0)"/>
<path d="M0 0 C1.56453588 -0.00202813 3.12907082 -0.00494566 4.69360352 -0.00869751 C7.95110189 -0.01308619 11.20835121 -0.00680277 14.46582031 0.00732422 C18.60423113 0.02441416 22.7420579 0.01455419 26.88044739 -0.00339317 C30.10473897 -0.01432545 33.32889611 -0.01074186 36.55319214 -0.0030098 C38.0775459 -0.00103375 39.60191259 -0.00337373 41.12625122 -0.01044846 C61.13866791 -0.08298696 75.87117817 4.62745249 90.59765625 18.421875 C102.95448868 31.23107702 106.59246757 47.40612139 106.58276367 64.63085938 C106.58612228 65.5052919 106.5894809 66.37972443 106.59294128 67.28065491 C106.60236388 70.14284727 106.6043897 73.00498064 106.60546875 75.8671875 C106.60868634 77.87300642 106.61205079 79.87882511 106.61555481 81.88464355 C106.62152358 86.07723535 106.62339693 90.2698066 106.62280273 94.46240234 C106.622701 99.81858429 106.6363746 105.17463401 106.65357494 110.53078461 C106.66472247 114.66933796 106.66672113 118.80785956 106.66619301 122.94642639 C106.66736814 124.92066404 106.67176357 126.89490263 106.67952538 128.86912537 C106.68938518 131.63484858 106.68642417 134.40028727 106.68041992 137.16601562 C106.68603943 137.97043594 106.69165894 138.77485626 106.69744873 139.60365295 C106.63872918 150.31380369 104.0759522 158.20693138 96.8046875 166.19140625 C91.21974621 171.45164165 85.02570902 173.4878582 77.4375 173.3984375 C77.43934359 173.99828177 77.44118717 174.59812605 77.44308662 175.21614742 C77.48733638 189.84008135 77.5203909 204.4640113 77.54112434 219.08799648 C77.55141846 226.16016997 77.56544297 233.23229864 77.58837891 240.30444336 C77.61051094 247.13198838 77.62207585 253.95948686 77.62725449 260.78706551 C77.63094413 263.38930048 77.63814904 265.99153296 77.64896011 268.59374809 C77.6635199 272.24411352 77.66547603 275.89428785 77.66455078 279.54467773 C77.67174133 280.6157074 77.67893188 281.68673706 77.68634033 282.79022217 C77.65796526 293.16505238 76.31437316 301.34007511 69.4375 309.3984375 C63.06763602 315.33687643 57.06673423 317.62939124 48.30566406 317.70483398 C47.61859375 317.7131575 46.93152344 317.72148102 46.22363281 317.73005676 C43.96673808 317.7540234 41.71013324 317.76291315 39.453125 317.76953125 C37.87139811 317.7785091 36.28967204 317.78763113 34.70794678 317.79689026 C31.39609725 317.81334758 28.08434841 317.82107416 24.77246094 317.82397461 C20.5515112 317.82934916 16.33152264 317.8670038 12.11084366 317.91271877 C8.84377688 317.94262704 5.5769375 317.94970116 2.30974579 317.95070076 C0.75495765 317.95487732 -0.79983279 317.96720738 -2.35448456 317.98821831 C-12.80716082 318.1182228 -20.85480458 317.13642014 -29.18359375 310.22265625 C-29.78300781 309.51753906 -30.38242187 308.81242187 -31 308.0859375 C-31.92619141 307.03986328 -31.92619141 307.03986328 -32.87109375 305.97265625 C-36.97256041 299.73047027 -38.04064737 293.64129825 -38.29980469 286.34985352 C-38.34040009 285.48176056 -38.38099548 284.6136676 -38.42282104 283.7192688 C-38.77301947 275.70402385 -38.96040917 267.68095591 -39.10419846 259.65960789 C-39.20054816 254.29352236 -39.34484622 248.93933005 -39.61328125 243.57885742 C-41.514848 204.67375683 -41.514848 204.67375683 -30.5468483 192.28089428 C-25.08917043 186.61162718 -18.92347713 181.997614 -12.5625 177.3984375 C6.20501604 162.55821852 6.20501604 162.55821852 17.4375 142.3984375 C17.82421875 140.82835937 17.82421875 140.82835937 18.21875 139.2265625 C20.4116308 128.10552413 18.59383588 118.51749486 12.9140625 108.7890625 C9.65016193 103.96341912 5.31910987 100.03206926 1.1875 95.9609375 C0.36636719 95.14044922 -0.45476562 94.31996094 -1.30078125 93.47460938 C-5.67655229 89.13004431 -10.13813263 84.95506074 -14.81152344 80.93334961 C-17.17481391 78.86168101 -19.3707019 76.64947338 -21.5625 74.3984375 C-24.43807659 71.48789949 -27.32124094 68.67419728 -30.4375 66.0234375 C-33.99539395 62.98410299 -37.2766591 59.72457982 -40.5625 56.3984375 C-45.06215897 51.84899268 -49.66395134 47.52077074 -54.5625 43.3984375 C-55.89640444 42.25326906 -57.22976268 41.10746401 -58.5625 39.9609375 C-59.5525 39.1153125 -60.5425 38.2696875 -61.5625 37.3984375 C-59.68988518 26.1233251 -51.597386 17.09494139 -42.5625 10.5859375 C-40.91063453 9.50056914 -39.24480708 8.43599565 -37.5625 7.3984375 C-36.91667969 6.99753906 -36.27085937 6.59664062 -35.60546875 6.18359375 C-24.67924255 0.08790966 -12.16724228 -0.05647033 0 0 Z " fill="#FEFEFE" transform="translate(499.5625,189.6015625)"/>
<path d="M0 0 C1.36846957 -0.00322281 2.73693882 -0.0065876 4.10540771 -0.01008606 C6.9630208 -0.0160421 9.82060381 -0.01792965 12.67822266 -0.01733398 C16.3032085 -0.01723265 19.92799725 -0.03087153 23.55293655 -0.04810619 C26.37745005 -0.05933753 29.20191759 -0.0612498 32.02645111 -0.06072426 C34.00082357 -0.06244621 35.97518169 -0.07321444 37.94952393 -0.08427429 C57.26235486 -0.0360167 73.1485215 4.09031505 87.546875 17.48046875 C92.93969385 23.1410162 96.49979756 29.73751636 98.796875 37.16796875 C98.22582031 37.59464844 97.65476563 38.02132812 97.06640625 38.4609375 C91.0768647 43.07926445 85.76765624 48.06843446 80.47583008 53.45776367 C77.66764612 56.31232967 74.85690616 59.07920821 71.796875 61.66796875 C67.47584045 65.32986244 63.5618241 69.37720827 59.58300781 73.40136719 C56.07650654 76.93237517 52.48282279 80.2748534 48.6875 83.49609375 C45.65435273 86.17829836 42.86090219 89.09425037 40.0234375 91.98046875 C37.97824049 93.98978511 35.87245475 95.83273622 33.671875 97.66796875 C25.79936902 104.47407949 21.06121255 112.3749561 17.796875 122.16796875 C16.87703635 136.76156266 18.94975659 146.98738639 28.796875 158.16796875 C32.39991322 161.79989118 36.18136178 165.23492167 39.97265625 168.66796875 C43.50826215 171.87297024 46.88966945 175.20306798 50.234375 178.60546875 C53.34964446 181.76302233 56.48463737 184.84759571 59.859375 187.73046875 C60.71811722 188.4939286 60.71811722 188.4939286 61.59420776 189.27281189 C63.19279515 190.64822339 64.85328381 191.95269725 66.5461731 193.21022034 C71.17873568 197.05929109 74.78321083 200.32918097 75.78533936 206.47140503 C76.25712387 211.67116764 76.1158169 216.85774442 75.9765625 222.0703125 C75.9636284 223.99880059 75.95517402 225.92732337 75.95095825 227.85585022 C75.93115748 231.88384695 75.87591892 235.90912542 75.79150391 239.9362793 C75.68414752 245.06813838 75.63707319 250.1981387 75.61320305 255.33100033 C75.58795382 260.26517995 75.53381297 265.19891648 75.4765625 270.1328125 C75.46789028 271.05858534 75.45921806 271.98435818 75.45028305 272.93818474 C75.1466286 299.41755047 75.1466286 299.41755047 67.53125 308.484375 C60.85179816 314.96825731 53.10378116 317.38269818 43.85864258 317.49023438 C43.20389954 317.50016418 42.54915649 317.51009399 41.87457275 317.52032471 C39.7301395 317.54929016 37.58600217 317.56312575 35.44140625 317.57421875 C34.33163201 317.58270088 34.33163201 317.58270088 33.1994381 317.59135437 C29.28227719 317.6212299 25.36526148 317.63975573 21.44799805 317.6484375 C17.43447245 317.65937851 13.42231361 317.70739963 9.40921497 317.76438141 C6.29390274 317.80192548 3.17890993 317.81206061 0.06339073 317.81510925 C-1.41441615 317.82110043 -2.89222169 317.83694459 -4.36980247 317.86347961 C-15.02804808 318.04119376 -24.22785716 316.64431641 -32.3790741 309.17370605 C-39.79046374 300.55748678 -40.65039354 290.12400481 -40.63549805 279.17895508 C-40.6456897 278.03618103 -40.65588135 276.89340698 -40.66638184 275.71600342 C-40.69632877 271.97728455 -40.70574992 268.23882267 -40.71484375 264.5 C-40.73170396 261.89254416 -40.749856 259.28509637 -40.76924133 256.67765808 C-40.81270828 250.54046406 -40.84137622 244.40329619 -40.86456472 238.26599568 C-40.89172341 231.27184207 -40.93562773 224.27782382 -40.98085344 217.28376734 C-41.07341553 202.91191082 -41.14522557 188.54000467 -41.203125 174.16796875 C-42.30398437 173.85875488 -43.40484375 173.54954102 -44.5390625 173.23095703 C-54.08718186 170.4609336 -61.19402627 166.07663705 -66.26171875 157.34375 C-69.3695601 150.72657583 -69.35251865 143.57989852 -69.34838867 136.42553711 C-69.35174728 135.57893524 -69.3551059 134.73233337 -69.35856628 133.8600769 C-69.36802235 131.0759736 -69.37001706 128.29193084 -69.37109375 125.5078125 C-69.3743113 123.55595374 -69.37767574 121.60409521 -69.38117981 119.65223694 C-69.38715865 115.56283002 -69.38902112 111.47344418 -69.38842773 107.3840332 C-69.38832648 102.17849883 -69.40194679 96.97310196 -69.41919994 91.76760006 C-69.43039668 87.7343536 -69.43234456 83.7011395 -69.43181801 79.6678791 C-69.43298782 77.75080456 -69.43735255 75.83372889 -69.44515038 73.91666985 C-69.52649006 51.84452406 -67.58819147 33.71695405 -51.95703125 16.7265625 C-37.30813052 2.5106342 -19.63281227 0.01692563 0 0 Z " fill="#FFFFFF" transform="translate(155.203125,189.83203125)"/>
<path d="M0 0 C218.13 0 436.26 0 661 0 C661 189.42 661 378.84 661 574 C442.87 574 224.74 574 0 574 C0 384.58 0 195.16 0 0 Z M19 25 C7.04880512 40.704653 5.69650781 56.77040897 5.73930359 75.77462769 C5.73628001 77.68051558 5.73238949 79.58640225 5.72771102 81.4922868 C5.71744905 86.70988411 5.71960826 91.92741257 5.72389162 97.14501548 C5.72636209 102.77975943 5.7173407 108.41448695 5.70985413 114.04922485 C5.69711426 125.08050664 5.69531253 136.11176407 5.69765439 147.14305197 C5.69943843 156.11054941 5.69768606 165.07803948 5.69342995 174.04553604 C5.69283476 175.32250915 5.69223957 176.59948225 5.69162634 177.91515151 C5.69041458 180.50943413 5.68920044 183.10371675 5.68798397 185.69799937 C5.68019877 203.11261648 5.67627621 220.5272287 5.68030071 237.94184685 C5.68045709 238.62237427 5.68061346 239.3029017 5.68077458 240.00405116 C5.68158032 243.45297433 5.68242609 246.90189749 5.68328788 250.35082065 C5.68345897 251.03574747 5.68363006 251.72067429 5.68380633 252.42635647 C5.68415299 253.81144334 5.68450152 255.19653021 5.68485192 256.58161708 C5.69020898 278.13304085 5.68227742 299.6844237 5.66381836 321.23583984 C5.64308772 345.46756652 5.63240872 369.69926031 5.63639385 393.93099797 C5.63830573 406.7544169 5.63581944 419.57779856 5.62167931 432.40121078 C5.6097639 443.31735059 5.6083625 454.23343017 5.62046947 465.14957081 C5.62635685 470.71672946 5.62746135 476.28377795 5.61546707 481.85092926 C5.60460432 486.95224029 5.60771644 492.05334923 5.62172876 497.15465082 C5.62437457 498.99505249 5.62201282 500.83547001 5.61399289 502.6758561 C5.53502908 522.15614809 8.64536786 538.21516803 22.625 552.78515625 C39.39400014 568.42335211 58.2825133 569.30115402 79.98136902 569.27415466 C82.23572715 569.27861023 84.49008371 569.28392532 86.74443799 569.29002339 C92.92536831 569.30417525 99.10624827 569.30586721 105.28719246 569.30542648 C111.27315089 569.30690749 117.25909081 569.31772228 123.2450388 569.32811778 C137.75299252 569.3528137 152.26093474 569.36163559 166.76890659 569.36665427 C167.51956921 569.36691544 168.27023183 569.36717662 169.04364181 569.36744571 C170.17196579 569.36783612 170.17196579 569.36783612 171.3230842 569.36823442 C179.6701216 569.37132043 188.01715584 569.37782643 196.36419106 569.3844471 C221.58755303 569.40408948 246.81091161 569.42049731 272.03428173 569.42332363 C273.24357407 569.42346472 273.24357407 569.42346472 274.47729655 569.42360866 C277.7442657 569.42398713 281.01123484 569.42435113 284.27820399 569.42471164 C286.736983 569.42498336 289.19576201 569.42526004 291.65454102 569.42553711 C292.46701607 569.42562513 293.27949113 569.42571315 294.11658665 569.42580384 C319.642293 569.42870898 345.16792362 569.45080531 370.69360352 569.48706055 C399.38938647 569.52781765 428.08511782 569.55148242 456.78093129 569.55178314 C459.84286424 569.55187996 462.90479718 569.55204668 465.96673012 569.55226326 C467.09756968 569.55232943 467.09756968 569.55232943 468.25125448 569.55239694 C480.3641791 569.55351509 492.47702759 569.5708988 504.58992772 569.59408258 C516.77114774 569.61696408 528.95226529 569.62112518 541.13349893 569.60653328 C547.72787382 569.59911688 554.32204193 569.60020996 560.91640282 569.62294388 C566.95982191 569.64357851 573.00277682 569.64089096 579.04619113 569.62006903 C581.22581306 569.61658284 583.4054688 569.62144692 585.58504643 569.63577347 C604.9707682 569.75492763 623.35863103 566.77139928 638.16015625 552.96875 C648.25958388 542.16171916 654.34400754 528.54973309 654.25447559 513.7245903 C654.25768207 512.92710745 654.26088855 512.12962459 654.26419219 511.30797559 C654.27247519 508.64312955 654.26657386 505.97850927 654.26069641 503.31365967 C654.26371787 501.38077467 654.26760733 499.44789086 654.27228898 497.51500916 C654.2825785 492.2088926 654.2803847 486.90284353 654.27610838 481.59672141 C654.27364287 475.87196354 654.2826532 470.147222 654.29014587 464.42247009 C654.30290016 453.20863148 654.30468562 441.9948168 654.30234561 430.78097215 C654.30056296 421.66560643 654.30231096 412.55024797 654.30657005 403.43488312 C654.30716524 402.13778729 654.30776043 400.84069146 654.30837366 399.5042897 C654.3095854 396.86925775 654.31079954 394.23422579 654.31201603 391.59919384 C654.31980416 373.90435361 654.32372177 356.20951678 654.31969929 338.51467514 C654.31954291 337.82284443 654.31938654 337.13101372 654.31922542 336.41821844 C654.31841965 332.91185898 654.31757388 329.40549953 654.31671212 325.89914009 C654.31654103 325.20278447 654.31636994 324.50642886 654.31619367 323.78897155 C654.31584701 322.38077112 654.31549848 320.97257069 654.31514808 319.56437026 C654.30979207 297.65764368 654.31771828 275.75095736 654.33618164 253.84423828 C654.35690873 229.22287134 654.36759183 204.60153168 654.36360615 179.98015523 C654.36169355 166.9471312 654.36418736 153.91414384 654.37832069 140.8811264 C654.39023199 129.78482441 654.39164223 118.68858167 654.37953053 107.59227887 C654.37363987 101.93210335 654.37254766 96.27203622 654.38453293 90.6118679 C654.39538486 85.42660475 654.3922964 80.24154055 654.37827124 75.05628672 C654.37562242 73.18418486 654.37799667 71.31206744 654.38600711 69.43998083 C654.45758842 51.45750206 651.83205778 35.41489966 638.93359375 21.76953125 C621.72600975 6.02198468 601.82923953 4.54478854 579.67564392 4.61904907 C577.42068285 4.61558832 575.16572348 4.61082096 572.91076761 4.60486734 C566.74219075 4.59238528 560.57375377 4.59851506 554.40517652 4.60782599 C548.42708303 4.61392808 542.44901247 4.6059131 536.47092427 4.5983839 C523.49650874 4.58262017 510.52213764 4.58394241 497.54771793 4.59262064 C486.19398842 4.60017725 474.84027516 4.60213277 463.48654366 4.5985527 C462.73244729 4.59832355 461.97835092 4.59809439 461.20140315 4.59785829 C458.14003445 4.59692423 455.07866576 4.59596902 452.01729707 4.594979 C423.32000683 4.58580921 394.62274484 4.59411111 365.92545896 4.61026969 C340.44630322 4.62450716 314.96719246 4.62323058 289.48803711 4.60888672 C260.84060414 4.59281301 232.19319611 4.58645817 203.54575926 4.59572351 C200.49038637 4.59668562 197.43501348 4.59762414 194.37964058 4.5985527 C193.25123159 4.59890855 193.25123159 4.59890855 192.10002646 4.59927159 C180.75452777 4.60267981 169.40904714 4.59870104 158.06355095 4.59111404 C145.16022381 4.58252815 132.25694791 4.58469814 119.35362714 4.60095628 C112.77180457 4.60897643 106.1900544 4.61193852 99.60823059 4.60200882 C93.57998409 4.59305188 87.55191318 4.5980115 81.52368254 4.61394148 C79.34622774 4.61728499 77.16875802 4.61560493 74.99131285 4.60831411 C52.87499829 4.53995755 34.61271362 7.73943288 19 25 Z " fill="#FCFCFC" transform="translate(0,0)"/>
<path d="M0 0 C12.78645869 8.29121931 23.8738677 20.68581866 27.75390625 35.67578125 C30.60041146 51.85827542 29.48591442 67.91683414 20.05078125 81.859375 C9.92423714 96.00645388 -3.26043365 104.85989468 -20.51171875 108.02734375 C-34.89021356 110.1086699 -48.47822997 106.09989384 -60.75 98.49609375 C-64.36217922 95.73326478 -67.58421441 92.75585442 -70.75 89.49609375 C-71.59111328 88.68591797 -71.59111328 88.68591797 -72.44921875 87.859375 C-82.80038741 77.07351159 -86.14365632 62.87301243 -86.12133789 48.44042969 C-85.70854768 31.86715973 -78.5339713 18.8175858 -66.75 7.49609375 C-47.71952385 -8.43128888 -22.10843589 -12.09055088 0 0 Z " fill="#FEFEFE" transform="translate(547.75,52.50390625)"/>
<path d="M0 0 C12.12204457 11.35041545 18.76174338 25.33518737 19.875 41.875 C20.00863936 55.77349379 16.1360012 67.73542313 7.875 78.875 C7.30136719 79.65617187 6.72773438 80.43734375 6.13671875 81.2421875 C-1.98546222 91.29490828 -14.34135385 98.82581681 -27.125 100.875 C-45.21759763 102.55562851 -61.44705041 99.06665407 -75.75 87.3125 C-87.36464969 76.40682354 -93.9524226 62.72256123 -95.125 46.875 C-95.41057507 31.96163518 -91.43769399 19.52107593 -82.125 7.875 C-81.485625 7.0396875 -80.84625 6.204375 -80.1875 5.34375 C-60.12767696 -18.66725031 -23.39377402 -18.9268526 0 0 Z " fill="#FFFFFF" transform="translate(210.125,59.125)"/>
<path d="M0 0 C2.70901175 2.52607675 3.00085898 4.00771928 3.41650391 7.74291992 C3.4510493 9.23850457 3.47019042 10.73449875 3.4765625 12.23046875 C3.49214203 13.0214949 3.50772156 13.81252106 3.52377319 14.6275177 C3.57121413 17.14750229 3.59903993 19.66721034 3.625 22.1875 C3.66145937 24.71830805 3.70201436 27.24895819 3.74765015 29.77961731 C3.77493432 31.35316222 3.79626052 32.92682342 3.81118774 34.50053406 C3.53689586 38.04566832 3.53689586 38.04566832 5 41 C6.50316769 41.1224331 8.01188167 41.17776285 9.51977539 41.20532227 C10.49418579 41.22550415 11.46859619 41.24568604 12.47253418 41.26647949 C13.50382446 41.28295532 14.53511475 41.29943115 15.59765625 41.31640625 C16.54024292 41.33505737 17.48282959 41.3537085 18.45397949 41.3729248 C21.99005361 41.44145282 25.5262888 41.50145412 29.0625 41.5625 C36.961875 41.706875 44.86125 41.85125 53 42 C53 60.48 53 78.96 53 98 C36.83 98.33 20.66 98.66 4 99 C3.86917276 110.95135143 3.86917276 110.95135143 3.79223633 122.90307617 C3.7657774 124.40807577 3.73749733 125.91304493 3.70703125 127.41796875 C3.71101929 128.1912854 3.71500732 128.96460205 3.71911621 129.76135254 C3.60873095 133.9675049 3.34667806 135.56195667 0.64331055 138.9777832 C-2.41879937 141.32039486 -4.16066522 141.92001386 -8 142 C-12.04009035 140.74117903 -14.59929555 138.85850329 -17.6875 136 C-18.55503906 135.19820312 -19.42257812 134.39640625 -20.31640625 133.5703125 C-23.81501203 130.21939168 -27.22483437 126.78640015 -30.62890625 123.33984375 C-33.31850264 120.68569509 -36.13363953 118.23179718 -39.00390625 115.77734375 C-42.06803813 113.04900715 -44.90481832 110.10332092 -47.78515625 107.18359375 C-49.77659461 105.22025329 -51.81302578 103.37920331 -53.9375 101.5625 C-58.02575701 98.05944081 -61.76409517 94.25299107 -65.54296875 90.421875 C-67.73278825 88.26338837 -69.97225326 86.24207443 -72.3125 84.25 C-76.12198101 80.98803549 -79.73015622 77.53968756 -82 73 C-82.27091416 68.96176701 -81.92551385 65.37650717 -79.63623047 61.97167969 C-77.81870436 59.99497289 -75.92689452 58.17845207 -73.9375 56.375 C-73.25010742 55.72112305 -72.56271484 55.06724609 -71.85449219 54.39355469 C-67.98247412 50.73430502 -64.02566178 47.16947124 -59.953125 43.734375 C-56.85217603 40.98073232 -53.9787837 37.99894779 -51.06762695 35.0480957 C-47.84569395 31.79933655 -44.50624039 28.77526021 -41.02734375 25.80859375 C-38.58571366 23.63041508 -36.29951968 21.32751992 -34 19 C-30.45440972 15.41651792 -26.84774129 11.99909178 -23.0078125 8.734375 C-21.53712652 7.46397699 -20.09851716 6.15618778 -18.6796875 4.828125 C-17.89851563 4.10109375 -17.11734375 3.3740625 -16.3125 2.625 C-15.60738281 1.95726562 -14.90226562 1.28953125 -14.17578125 0.6015625 C-9.40071882 -2.91329494 -5.32184934 -2.06960808 0 0 Z " fill="#FFFFFF" transform="translate(284,250)"/>
<path d="M0 0 C3.00406761 2.0046486 5.46923653 4.43463625 8 7 C8.99 7.98806641 8.99 7.98806641 10 8.99609375 C11.34049995 10.33921186 12.67640399 11.68693168 14.0078125 13.0390625 C15.90327074 14.90478806 17.85446735 16.64659255 19.875 18.375 C23.06682509 21.11621449 26.04302977 24.00685888 29 27 C31.85523683 29.88989828 34.71500196 32.68451745 37.8125 35.3125 C42.18460267 39.04608057 46.16767557 43.1409823 50.20654297 47.22607422 C53.19908234 50.23958321 56.21809229 53.16300084 59.4375 55.9375 C60.0459375 56.46472656 60.654375 56.99195313 61.28125 57.53515625 C62.43412406 58.51771937 63.60119031 59.48385273 64.78125 60.43359375 C68.65901498 63.80834677 69.77520423 66.5744354 70.3828125 71.65625 C69.27928587 78.41253547 63.10987103 82.96056732 58.3125 87.3125 C56.87000117 88.6407415 55.42858769 89.9701627 53.98828125 91.30078125 C53.29814941 91.93709473 52.60801758 92.5734082 51.89697266 93.22900391 C49.53946163 95.42995435 47.26055245 97.69985819 45 100 C41.80907182 103.23927558 38.48208237 106.22964368 35.03125 109.1875 C32.76361428 111.2109288 30.6342305 113.33653347 28.5 115.5 C25.16059176 118.88507537 21.7098071 122.0292653 18.09765625 125.1171875 C15.62549755 127.33614559 13.32209956 129.68722259 11 132.0625 C0.40696731 142.63936012 0.40696731 142.63936012 -4.3203125 143.34765625 C-8.70483812 143.16677648 -10.35453189 142.63124057 -13.59179688 139.46533203 C-16.66065019 135.66198552 -16.73241107 132.29047152 -16.70703125 127.5390625 C-16.72165405 126.83740967 -16.73627686 126.13575684 -16.75134277 125.4128418 C-16.79834929 122.8172401 -16.80298703 120.22100988 -16.8125 117.625 C-16.874375 111.80875 -16.93625 105.9925 -17 100 C-31.85 99.67 -46.7 99.34 -62 99 C-62 80.19 -62 61.38 -62 42 C-39.725 41.505 -39.725 41.505 -17 41 C-16.86921151 29.75190703 -16.86921151 29.75190703 -16.79223633 18.50341797 C-16.76576787 17.08297047 -16.73748568 15.66255513 -16.70703125 14.2421875 C-16.71101929 13.51717041 -16.71500732 12.79215332 -16.71911621 12.04516602 C-16.5589523 6.27336977 -15.01353284 3.86784905 -11 0 C-7.07884412 -1.30705196 -3.89491511 -1.23770193 0 0 Z " fill="#FEFEFE" transform="translate(420,249)"/>
<path d="M0 0 C0 3 0 3 -2.1875 5.48046875 C-3.115625 6.37378906 -4.04375 7.26710938 -5 8.1875 C-5.928125 9.08855469 -6.85625 9.98960938 -7.8125 10.91796875 C-8.534375 11.60503906 -9.25625 12.29210938 -10 13 C-10.66 12.67 -11.32 12.34 -12 12 C-10.56665422 10.37133456 -9.12817021 8.74719006 -7.6875 7.125 C-6.88699219 6.22007813 -6.08648437 5.31515625 -5.26171875 4.3828125 C-3 2 -3 2 0 0 Z " fill="#2F9469" transform="translate(29,16)"/>
</svg>
